<?xml version="1.0" encoding="UTF-8" standalone="no"?>
<svg
   xmlns:dc="http://purl.org/dc/elements/1.1/"
   xmlns:cc="http://creativecommons.org/ns#"
   xmlns:rdf="http://www.w3.org/1999/02/22-rdf-syntax-ns#"
   xmlns:svg="http://www.w3.org/2000/svg"
   xmlns="http://www.w3.org/2000/svg"
   xmlns:sodipodi="http://sodipodi.sourceforge.net/DTD/sodipodi-0.dtd"
   xmlns:inkscape="http://www.inkscape.org/namespaces/inkscape"
   version="1.1"
   id="Layer_1"
   x="0px"
   y="0px"
   viewBox="0 0 35.999998 35.999998"
   xml:space="preserve"
   sodipodi:docname="driver.svg"
   inkscape:version="1.0.1 (3bc2e813f5, 2020-09-07)"
   width="36"
   height="36"><metadata
   id="metadata442"><rdf:RDF><cc:Work
       rdf:about=""><dc:format>image/svg+xml</dc:format><dc:type
         rdf:resource="http://purl.org/dc/dcmitype/StillImage" /><dc:title></dc:title></cc:Work></rdf:RDF></metadata><defs
   id="defs440" /><sodipodi:namedview
   pagecolor="#ffffff"
   bordercolor="#666666"
   borderopacity="1"
   objecttolerance="10"
   gridtolerance="10"
   guidetolerance="10"
   inkscape:pageopacity="0"
   inkscape:pageshadow="2"
   inkscape:window-width="1920"
   inkscape:window-height="1055"
   id="namedview438"
   showgrid="false"
   inkscape:zoom="12.054023"
   inkscape:cx="7.727967"
   inkscape:cy="22.691733"
   inkscape:window-x="0"
   inkscape:window-y="25"
   inkscape:window-maximized="0"
   inkscape:current-layer="Layer_1"
   fit-margin-top="0"
   fit-margin-left="0"
   fit-margin-right="0"
   fit-margin-bottom="0" />
<g
   transform="matrix(0.07019514,0,0,0.08600912,0.07019514,-3.9690414)"
   id="g405">
	<path
   style="fill:#ffdd09"
   d="M 470.893,285.507 C 447.853,283.8 425.666,273.56 413.72,253.08 l -2.56,-3.413 C 399.213,230.04 377.027,217.24 353.987,217.24 H 242.2 c -18.773,0 -37.547,8.533 -50.347,22.187 l -11.947,13.653 c -23.893,26.453 -55.467,43.52 -91.307,47.787 l -52.053,6.827 C 19.48,309.4 6.68,324.76 6.68,341.827 v 37.547 c 0,18.773 15.36,34.133 34.133,34.133 H 83.48 c 0,-23.893 18.773,-42.667 42.667,-42.667 23.894,0 42.667,18.773 42.667,42.667 h 187.733 c 0,-23.893 18.773,-42.667 42.667,-42.667 23.893,0 42.667,18.773 42.667,42.667 h 25.6 c 18.773,0 34.133,-15.36 34.133,-34.133 V 319.64 c 0.853,-17.92 -13.654,-33.28 -30.721,-34.133"
   id="path377" />
	<path
   style="fill:#1cd759"
   d="M 255,294.04 V 187.373 c -20.48,-13.653 -34.133,-37.547 -34.133,-64 0,-29.867 17.067,-55.467 42.667,-68.267 v 76.8 h 51.2 v -76.8 c 25.6,12.8 42.667,38.4 42.667,68.267 0,26.453 -13.653,50.347 -34.133,64 V 294.04 c 0,18.773 -15.36,34.133 -34.133,34.133 v 0 C 270.36,328.173 255,312.813 255,294.04"
   id="path379" />
	<path
   style="fill:#15a143"
   d="m 314.733,55.107 v 20.48 c 10.24,12.8 17.067,29.867 17.067,47.787 0,26.453 -13.653,50.347 -34.133,64 V 294.04 c 0,14.507 -8.533,26.453 -21.333,31.573 4.267,1.707 8.533,2.56 12.8,2.56 18.773,0 34.133,-15.36 34.133,-34.133 V 187.373 c 20.48,-13.653 34.133,-37.547 34.133,-64 0,-29.866 -17.067,-55.466 -42.667,-68.266"
   id="path381" />
	<path
   style="fill:#fcc309"
   d="m 442.733,413.507 c 0,23.893 -18.773,42.667 -42.667,42.667 -23.893,0 -42.667,-18.773 -42.667,-42.667 0,-23.894 18.773,-42.667 42.667,-42.667 23.894,0 42.667,18.773 42.667,42.667"
   id="path383" />
	<path
   style="fill:#ffffff"
   d="M 37.4,307.693 C 20.333,309.4 7.533,324.76 7.533,341.827 v 37.547 c 0,18.773 15.36,34.133 34.133,34.133 h 25.6 c -18.773,0 -34.133,-15.36 -34.133,-34.133 v -38.4 c 0,-17.067 12.8,-31.573 29.867,-34.133 H 37.4 Z"
   id="path385" />
	<path
   style="fill:#fd9808"
   d="M 470.893,285.507 C 447.853,283.8 425.666,273.56 413.72,253.08 l -2.56,-3.413 C 399.213,230.04 377.027,217.24 353.987,217.24 h -25.6 c 23.04,0 45.227,11.947 57.173,32.427 l 2.56,3.413 c 11.947,19.627 34.133,30.72 57.173,32.427 17.92,0.853 31.573,16.213 31.573,34.133 v 59.733 c 0,18.773 -15.36,34.133 -34.133,34.133 h 25.6 c 18.773,0 34.133,-15.36 34.133,-34.133 V 319.64 c 10e-4,-17.92 -14.506,-33.28 -31.573,-34.133"
   id="path387" />
	<path
   style="fill:#fcc309"
   d="m 169.667,413.507 c 0,23.893 -18.773,42.667 -42.667,42.667 -23.894,0 -42.667,-18.774 -42.667,-42.667 0,-23.893 18.774,-42.667 42.667,-42.667 23.893,0 42.667,18.773 42.667,42.667"
   id="path389" />
	<g
   id="g395">
		<path
   style="fill:#fd9808"
   d="m 127,370.84 c -4.267,0 -8.533,0.853 -12.8,2.56 17.067,5.12 29.867,21.333 29.867,40.107 0,18.774 -12.8,34.987 -29.867,40.107 4.267,1.707 8.533,2.56 12.8,2.56 23.893,0 42.667,-18.773 42.667,-42.667 0,-23.894 -18.774,-42.667 -42.667,-42.667"
   id="path391" />
		<path
   style="fill:#fd9808"
   d="m 400.067,370.84 c -4.267,0 -8.533,0.853 -12.8,2.56 17.067,5.12 29.867,21.333 29.867,40.107 0,18.774 -12.8,34.987 -29.867,40.107 4.267,1.707 8.533,2.56 12.8,2.56 23.893,0 42.667,-18.773 42.667,-42.667 0,-23.894 -18.774,-42.667 -42.667,-42.667"
   id="path393" />
	</g>
	<path
   d="m 289.133,336.707 c -23.893,0 -42.667,-18.773 -42.667,-42.667 v -102.4 c -21.333,-16.213 -34.133,-40.96 -34.133,-68.267 0,-32.427 17.92,-61.44 47.787,-75.947 2.56,-1.707 5.973,-0.853 8.533,0 1.707,1.707 3.413,5.12 3.413,7.68 v 68.267 H 306.2 V 55.107 c 0,-2.56 1.707,-5.973 4.267,-7.68 2.56,-1.707 5.973,-1.707 8.533,0 29.013,14.507 46.933,43.52 46.933,75.947 0,27.307 -12.8,52.053 -34.133,68.267 v 102.4 c 0,23.892 -18.773,42.666 -42.667,42.666 z M 255,70.467 c -16.213,12.8 -25.6,31.573 -25.6,52.907 0,23.04 11.093,44.373 30.72,57.173 2.56,1.707 3.413,4.267 3.413,6.827 V 294.04 c 0,14.507 11.093,25.6 25.6,25.6 14.507,0 25.6,-11.093 25.6,-25.6 V 187.373 c 0,-2.56 1.707,-5.12 3.413,-6.827 18.773,-12.8 30.72,-34.133 30.72,-57.173 0,-20.48 -9.387,-40.107 -25.6,-52.907 v 61.44 c 0,5.12 -3.413,8.533 -8.533,8.533 h -51.2 c -5.12,0 -8.533,-3.413 -8.533,-8.533 V 70.467 Z"
   id="path397" />
	<path
   d="m 127,464.707 c -28.16,0 -51.2,-23.04 -51.2,-51.2 0,-28.16 23.04,-51.2 51.2,-51.2 28.16,0 51.2,23.04 51.2,51.2 0,28.16 -23.04,51.2 -51.2,51.2 z m 0,-85.334 c -18.773,0 -34.133,15.36 -34.133,34.133 0,18.773 15.36,34.134 34.133,34.134 18.773,0 34.133,-15.36 34.133,-34.133 0,-18.773 -15.36,-34.134 -34.133,-34.134 z"
   id="path399" />
	<path
   d="m 400.067,464.707 c -28.16,0 -51.2,-23.04 -51.2,-51.2 0,-28.16 23.04,-51.2 51.2,-51.2 28.16,0 51.2,23.04 51.2,51.2 0,28.16 -23.04,51.2 -51.2,51.2 z m 0,-85.334 c -18.773,0 -34.133,15.36 -34.133,34.133 0,18.773 15.36,34.133 34.133,34.133 18.773,0 34.133,-15.36 34.133,-34.133 0,-18.773 -15.36,-34.133 -34.133,-34.133 z"
   id="path401" />
	<path
   d="m 468.333,422.04 h -25.6 c -5.12,0 -8.533,-3.413 -8.533,-8.533 0,-18.773 -15.36,-34.133 -34.133,-34.133 -18.773,0 -34.133,15.36 -34.133,34.133 0,5.12 -3.413,8.533 -8.533,8.533 H 169.667 c -5.12,0 -8.533,-3.413 -8.533,-8.533 0,-18.773 -15.36,-34.133 -34.133,-34.133 -18.773,0 -34.133,15.36 -34.133,34.133 0,5.12 -3.413,8.533 -8.533,8.533 H 41.667 C 17.773,422.04 -1,403.267 -1,379.373 v -38.4 C -1,319.64 15.213,300.866 36.547,298.306 L 88.6,291.48 c 33.28,-4.267 63.147,-20.48 85.333,-45.227 L 185.88,232.6 c 8.533,-10.24 19.627,-20.48 32.427,-24.747 4.267,-1.707 9.387,0.853 11.093,5.12 1.707,4.267 -0.853,9.387 -5.12,11.093 -8.533,3.413 -17.92,11.947 -24.747,20.48 l -12.8,14.507 c -24.747,28.16 -58.88,46.08 -96.427,50.347 l -52.053,6.827 c -12.8,0.853 -22.187,11.947 -22.187,24.747 v 38.4 c 0,14.507 11.093,25.6 25.6,25.6 H 76.653 C 80.92,381.08 101.4,362.307 127,362.307 c 25.6,0 46.08,18.773 50.347,42.667 H 349.72 c 4.267,-23.893 24.747,-42.667 50.347,-42.667 25.6,0 46.08,18.773 50.347,42.667 h 17.92 c 14.507,0 25.6,-11.093 25.6,-25.6 V 319.64 c 0,-13.653 -10.24,-24.747 -23.893,-25.6 -27.307,-1.707 -51.2,-15.36 -64,-36.693 l -2.56,-4.267 c -10.24,-16.213 -27.307,-27.307 -46.933,-28.16 -5.12,0 -8.533,-4.267 -7.68,-9.387 0,-5.12 4.267,-8.533 9.387,-7.68 24.747,1.707 47.787,14.507 60.587,35.84 l 2.56,4.267 c 10.24,16.213 28.16,26.453 50.347,28.16 22.187,1.707 40.107,20.48 40.107,42.667 v 59.733 c -0.856,24.747 -19.629,43.52 -43.523,43.52 z"
   id="path403" />
</g>
<g
   id="g407"
   transform="translate(0,-47.14675)">
</g>
<g
   id="g409"
   transform="translate(0,-47.14675)">
</g>
<g
   id="g411"
   transform="translate(0,-47.14675)">
</g>
<g
   id="g413"
   transform="translate(0,-47.14675)">
</g>
<g
   id="g415"
   transform="translate(0,-47.14675)">
</g>
<g
   id="g417"
   transform="translate(0,-47.14675)">
</g>
<g
   id="g419"
   transform="translate(0,-47.14675)">
</g>
<g
   id="g421"
   transform="translate(0,-47.14675)">
</g>
<g
   id="g423"
   transform="translate(0,-47.14675)">
</g>
<g
   id="g425"
   transform="translate(0,-47.14675)">
</g>
<g
   id="g427"
   transform="translate(0,-47.14675)">
</g>
<g
   id="g429"
   transform="translate(0,-47.14675)">
</g>
<g
   id="g431"
   transform="translate(0,-47.14675)">
</g>
<g
   id="g433"
   transform="translate(0,-47.14675)">
</g>
<g
   id="g435"
   transform="translate(0,-47.14675)">
</g>
</svg>
